# xmcd
#
# Track frame offsets:
#	150
#	15122
#	36996
#	50253
#	64033
#	74679
#	91560
#	103128
#	117647
#	132147
#	148172
#	165883
#	180156
#	194280
#	207530
#	224716
#	240800
#	254057
#
# Disc length: 3574 seconds
#
# Revision: 0
# Processed by: cddbd v1.5.2PL0 Copyright (c) Steve Scherf et al.
# Submitted via: EasyCDDAExtractor 16.0.8.2
#
DISCID=010df412
DTITLE=Συλλογικός δίσκος - Τα 45άρια του τζουκ μποξ 4
DYEAR=2014
DGENRE=Ποικίλη
TTITLE0=Αγγελόπουλος Μανώλης - Καλή τύχη [Απ. Καλδάρας]
TTITLE1=Γλυκερία - Νύχτες μαγικές [Β. Τσιτσάνης]
TTITLE2=Λίντα Μαίρη - Εσύ είσαι η αιτία που υποφέρω [Μ. Χιώτης]
TTITLE3=Ζαγοραίος Σπύρος - Τρελλοκόριτσο [Γ. Μπιθικώτσης-Ι. Παπαδόπουλος]
TTITLE4=Μουφλουζέλης Γιώργος - Εγώ δεν έχω βγάλει το σχολείο [Γ. Μουφλουζέλης]
TTITLE5=Καζαντζίδης Στέλιος - Ο τραγουδιστής [Χ. Νικολόπουλος-Μ. Μπιζάνη]
TTITLE6=Κοινούσης Γιώργος - Άνθρωποι είμαστε [Γ. Κοινούσης]
TTITLE7=Μπέλλου Σωτηρία - Καϋμό μέσ' στην καρδούλα μου [Κ. Σκαρβέλης]
TTITLE8=Πουλόπουλος Γιάννης - Πάμε για ύπνο Κατερίνα [Γ. Κατσαρός-Πυθαγόρας]
TTITLE9=Νταράλας Λουκάς - Το πλουσιόπαιδο [Μ. Χιώτης-Χ. Κολοκοτρώνης]
TTITLE10=Γλυκερία - Τα ξένα χέρια [Β. Τσιτσάνης]
TTITLE11=Πάνου Πόλυ - Μιά νύχτα στο Πασαλιμάνι [Β. Τσιτσάνης]
TTITLE12=Μπέλλου Σωτηρία - Απόψε κάνεις μπαμ [Β. Τσιτσάνης]
TTITLE13=Ανδρεάτος Γεράσιμος - Χθες το βράδυ στην ταβέρνα [Αντ. Ρεπάνης-Παν. Κ
TTITLE13=αμηλιέρης]
TTITLE14=Μενιδιάτης Μιχάλης - Πετραδάκι, πετραδάκι [Α. Καλδάρας-Ε. Παπαγιαννοπ
TTITLE14=ούλου]
TTITLE15=Νικολαΐδης Απόστολος - Ήρθαν τα μαντάτα σου (Οι παπατζ.)[Τ. Χάρμας]
TTITLE16=Ζακυνθηνάκης Ανδρέας - Αυτή η νύχτα μένει [Σ. Καζαντζίδης]
TTITLE17=Μπουλουγουράς Γιώργος - Χαμένη πολιτεία [Γ. Γεωργόπουλος-Λ. Τσώλης]
EXTD=
EXTT0=
EXTT1=
EXTT2=
EXTT3=
EXTT4=
EXTT5=
EXTT6=
EXTT7=
EXTT8=
EXTT9=
EXTT10=
EXTT11=
EXTT12=
EXTT13=
EXTT14=
EXTT15=
EXTT16=
EXTT17=
PLAYORDER=
